<svg width="156" height="199" viewBox="0 0 156 199" fill="none" xmlns="http://www.w3.org/2000/svg">
<g filter="url(#filter0_d)">
<path d="M56.9316 173.39C57.1716 172.88 57.3216 172.31 57.3216 171.71V167.3C57.3216 165.14 55.5816 163.4 53.4216 163.4H36.6216V185H54.3216C56.4816 185 58.2216 183.26 58.2216 181.1V176.27C58.2216 175.13 57.7116 174.08 56.9316 173.39ZM53.4216 166.64C53.7816 166.64 54.0816 166.94 54.0816 167.3V171.71C54.0816 172.07 53.7816 172.37 53.4216 172.37H40.5216C40.1616 172.37 39.8616 172.07 39.8616 171.71V167.3C39.8616 166.94 40.1616 166.64 40.5216 166.64H53.4216ZM54.9816 181.1C54.9816 181.46 54.6816 181.76 54.3216 181.76H40.5216C40.1616 181.76 39.8616 181.46 39.8616 181.1V176.27C39.8616 175.91 40.1616 175.61 40.5216 175.61H54.3216C54.6816 175.61 54.9816 175.91 54.9816 176.27V181.1ZM88.9425 167.3C88.9425 165.14 87.2025 163.4 85.0425 163.4H71.2425C69.0825 163.4 67.3425 165.14 67.3425 167.3V171.92C67.3425 174.08 69.0825 175.82 71.2425 175.82H85.0425C85.4025 175.82 85.7025 176.12 85.7025 176.48V181.1C85.7025 181.46 85.4025 181.76 85.0425 181.76H71.2425C70.8825 181.76 70.5825 181.46 70.5825 181.1V179.84H67.3425V181.1C67.3425 183.26 69.0825 185 71.2425 185H85.0425C87.2025 185 88.9425 183.26 88.9425 181.1V176.48C88.9425 174.32 87.2025 172.58 85.0425 172.58H71.2425C70.8825 172.58 70.5825 172.28 70.5825 171.92V167.3C70.5825 166.94 70.8825 166.64 71.2425 166.64H85.0425C85.4025 166.64 85.7025 166.94 85.7025 167.3V168.56H88.9425V167.3ZM119.7 166.64V163.4H102.06C99.9005 163.4 98.1605 165.14 98.1605 167.3V181.1C98.1605 183.26 99.9005 185 102.06 185H119.7V181.76H102.06C101.7 181.76 101.4 181.46 101.4 181.1V167.3C101.4 166.94 101.7 166.64 102.06 166.64H119.7Z" fill="#EDCD49"/>
</g>
<g filter="url(#filter1_d)">
<path d="M53.1412 67.7866L77.9997 42.928L102.87 67.7974L117.334 53.3334L77.9997 14L38.6783 53.3216L53.1417 67.7856L53.1412 67.7866ZM14 78L28.4645 63.5334L42.9279 77.9969L28.4634 92.4614L14 78ZM53.1412 88.2149L77.9997 113.072L102.87 88.2031L117.341 102.659L117.334 102.667L77.9997 142L38.6783 102.678L38.6578 102.658L53.1428 88.2134L53.1412 88.2149ZM113.072 78.0061L127.536 63.5416L141.999 78.0051L127.536 92.4696L113.072 78.0061Z" fill="#F3BA2F"/>
<path d="M92.6698 77.9924H92.6759L78 63.3154L67.1523 74.1601L65.9061 75.4068L63.3359 77.9776L63.3154 77.9976L63.3359 78.0186L78 92.6848L92.677 78.0078L92.6841 77.9996L92.6708 77.9924" fill="#F3BA2F"/>
</g>
<defs>
<filter id="filter0_d" x="22.6216" y="149.4" width="111.079" height="49.6" filterUnits="userSpaceOnUse" color-interpolation-filters="sRGB">
<feFlood flood-opacity="0" result="BackgroundImageFix"/>
<feColorMatrix in="SourceAlpha" type="matrix" values="0 0 0 0 0 0 0 0 0 0 0 0 0 0 0 0 0 0 127 0" result="hardAlpha"/>
<feOffset/>
<feGaussianBlur stdDeviation="7"/>
<feColorMatrix type="matrix" values="0 0 0 0 0.568579 0 0 0 0 0.386314 0 0 0 0 1 0 0 0 0.3 0"/>
<feBlend mode="normal" in2="BackgroundImageFix" result="effect1_dropShadow"/>
<feBlend mode="normal" in="SourceGraphic" in2="effect1_dropShadow" result="shape"/>
</filter>
<filter id="filter1_d" x="0" y="0" width="156" height="156" filterUnits="userSpaceOnUse" color-interpolation-filters="sRGB">
<feFlood flood-opacity="0" result="BackgroundImageFix"/>
<feColorMatrix in="SourceAlpha" type="matrix" values="0 0 0 0 0 0 0 0 0 0 0 0 0 0 0 0 0 0 127 0" result="hardAlpha"/>
<feOffset/>
<feGaussianBlur stdDeviation="7"/>
<feColorMatrix type="matrix" values="0 0 0 0 0.568579 0 0 0 0 0.386314 0 0 0 0 1 0 0 0 0.3 0"/>
<feBlend mode="normal" in2="BackgroundImageFix" result="effect1_dropShadow"/>
<feBlend mode="normal" in="SourceGraphic" in2="effect1_dropShadow" result="shape"/>
</filter>
</defs>
</svg>
