<svg width="218" height="211" viewBox="0 0 218 211" fill="none" xmlns="http://www.w3.org/2000/svg">
<g filter="url(#filter0_d)">
<path d="M43.1261 146.3C43.1261 144.14 41.3861 142.4 39.2261 142.4H25.4261C23.2661 142.4 21.5261 144.14 21.5261 146.3V150.92C21.5261 153.08 23.2661 154.82 25.4261 154.82H39.2261C39.5861 154.82 39.8861 155.12 39.8861 155.48V160.1C39.8861 160.46 39.5861 160.76 39.2261 160.76H25.4261C25.0661 160.76 24.7661 160.46 24.7661 160.1V158.84H21.5261V160.1C21.5261 162.26 23.2661 164 25.4261 164H39.2261C41.3861 164 43.1261 162.26 43.1261 160.1V155.48C43.1261 153.32 41.3861 151.58 39.2261 151.58H25.4261C25.0661 151.58 24.7661 151.28 24.7661 150.92V146.3C24.7661 145.94 25.0661 145.64 25.4261 145.64H39.2261C39.5861 145.64 39.8861 145.94 39.8861 146.3V147.56H43.1261V146.3ZM56.1841 142.4C54.0241 142.4 52.2841 144.14 52.2841 146.3V160.1C52.2841 162.26 54.0241 164 56.1841 164H69.9841C72.1441 164 73.8841 162.26 73.8841 160.1V146.3C73.8841 144.14 72.1441 142.4 69.9841 142.4H56.1841ZM56.1841 160.76C55.8241 160.76 55.5241 160.46 55.5241 160.1V146.3C55.5241 145.94 55.8241 145.64 56.1841 145.64H69.9841C70.3441 145.64 70.6441 145.94 70.6441 146.3V160.1C70.6441 160.46 70.3441 160.76 69.9841 160.76H56.1841ZM83.2178 164H104.818V160.76H86.4578V142.37H83.2178V164ZM116.527 142.4C114.367 142.4 112.627 144.14 112.627 146.3V164H115.867V156.44H130.987V164H134.227V146.3C134.227 144.14 132.487 142.4 130.327 142.4H116.527ZM115.867 153.2V146.3C115.867 145.94 116.167 145.64 116.527 145.64H130.327C130.687 145.64 130.987 145.94 130.987 146.3V153.2H115.867ZM162.005 159.68L147.485 142.4H143.645V164H146.885V146.72L161.405 164H165.245V142.4H162.005V159.68ZM178.566 142.4C176.406 142.4 174.666 144.14 174.666 146.3V164H177.906V156.44H193.026V164H196.266V146.3C196.266 144.14 194.526 142.4 192.366 142.4H178.566ZM177.906 153.2V146.3C177.906 145.94 178.206 145.64 178.566 145.64H192.366C192.726 145.64 193.026 145.94 193.026 146.3V153.2H177.906Z" fill="url(#paint0_linear)"/>
</g>
<g filter="url(#filter1_d)">
<path d="M40.3023 191.272C40.1103 191.272 39.9503 191.112 39.9503 190.92V185.8C39.9503 185.608 40.1103 185.448 40.3023 185.448H47.6303V183.72H40.3023C39.1503 183.72 38.2223 184.648 38.2223 185.8V190.92C38.2223 192.072 39.1503 193 40.3023 193H47.6623V191.272H40.3023ZM54.6273 183.72C53.4753 183.72 52.5473 184.648 52.5473 185.8V190.92C52.5473 192.072 53.4753 193 54.6273 193H59.9073C61.0593 193 61.9873 192.072 61.9873 190.92V185.8C61.9873 184.648 61.0593 183.72 59.9073 183.72H54.6273ZM59.9073 185.448C60.0993 185.448 60.2593 185.608 60.2593 185.8V190.92C60.2593 191.112 60.0993 191.272 59.9073 191.272H54.6273C54.4353 191.272 54.2753 191.112 54.2753 190.92V185.8C54.2753 185.608 54.4353 185.448 54.6273 185.448H59.9073ZM78.7294 183.72H66.8734V193H68.6014V185.8C68.6014 185.608 68.7614 185.448 68.9534 185.448H72.6334C72.8254 185.448 72.9854 185.608 72.9854 185.8V193H74.7134V185.8C74.7134 185.608 74.8734 185.448 75.0654 185.448H78.7294C78.9374 185.448 79.0974 185.608 79.0974 185.8V193H80.8094V185.8C80.8094 184.648 79.8814 183.72 78.7294 183.72ZM85.682 193H87.41V183.72H85.682V193ZM85.682 180.68V182.408H87.41V180.68H85.682ZM99.3678 183.72H92.0078V193H93.7358V185.8C93.7358 185.608 93.8958 185.448 94.0878 185.448H99.3678C99.5598 185.448 99.7198 185.608 99.7198 185.8V193H101.448V185.8C101.448 184.648 100.52 183.72 99.3678 183.72ZM115.58 189.464V185.8C115.58 184.648 114.652 183.72 113.5 183.72H108.22C107.068 183.72 106.14 184.648 106.14 185.8V190.92C106.14 192.072 107.068 193 108.22 193H113.852V194.6C113.852 194.792 113.692 194.952 113.5 194.952H107.772V196.68H113.5C114.652 196.68 115.58 195.752 115.58 194.6V189.48V189.464ZM108.22 191.272C108.028 191.272 107.868 191.112 107.868 190.92V185.8C107.868 185.608 108.028 185.448 108.22 185.448H113.5C113.692 185.448 113.852 185.608 113.852 185.8V190.92C113.852 191.112 113.692 191.272 113.5 191.272H108.22ZM137.655 185.8C137.655 184.648 136.727 183.72 135.575 183.72H130.295C129.143 183.72 128.215 184.648 128.215 185.8V187.144C128.215 188.296 129.143 189.224 130.295 189.224H135.575C135.767 189.224 135.927 189.384 135.927 189.576V190.92C135.927 191.112 135.767 191.272 135.575 191.272H130.295C130.103 191.272 129.943 191.112 129.943 190.92V190.568H128.215V190.92C128.215 192.072 129.143 193 130.295 193H135.575C136.727 193 137.655 192.072 137.655 190.92V189.576C137.655 188.424 136.727 187.496 135.575 187.496H130.295C130.103 187.496 129.943 187.336 129.943 187.144V185.8C129.943 185.608 130.103 185.448 130.295 185.448H135.575C135.767 185.448 135.927 185.608 135.927 185.8V186.152H137.655V185.8ZM144.512 183.72C143.36 183.72 142.432 184.648 142.432 185.8V190.92C142.432 192.072 143.36 193 144.512 193H149.792C150.944 193 151.872 192.072 151.872 190.92V185.8C151.872 184.648 150.944 183.72 149.792 183.72H144.512ZM149.792 185.448C149.984 185.448 150.144 185.608 150.144 185.8V190.92C150.144 191.112 149.984 191.272 149.792 191.272H144.512C144.32 191.272 144.16 191.112 144.16 190.92V185.8C144.16 185.608 144.32 185.448 144.512 185.448H149.792ZM158.305 183.72C157.153 183.72 156.225 184.648 156.225 185.8V190.92C156.225 192.072 157.153 193 158.305 193H163.585C164.737 193 165.665 192.072 165.665 190.92V185.8C165.665 184.648 164.737 183.72 163.585 183.72H158.305ZM163.585 185.448C163.777 185.448 163.937 185.608 163.937 185.8V190.92C163.937 191.112 163.777 191.272 163.585 191.272H158.305C158.113 191.272 157.953 191.112 157.953 190.92V185.8C157.953 185.608 158.113 185.448 158.305 185.448H163.585ZM177.677 183.72H170.317V193H172.045V185.8C172.045 185.608 172.205 185.448 172.397 185.448H177.677C177.869 185.448 178.029 185.608 178.029 185.8V193H179.757V185.8C179.757 184.648 178.829 183.72 177.677 183.72Z" fill="url(#paint1_linear)"/>
</g>
<g clip-path="url(#clip0)">
<path d="M65.0911 81.6658C65.9118 80.8419 67.0403 80.3613 68.2372 80.3613H176.777C178.761 80.3613 179.752 82.7643 178.35 84.1717L156.909 105.695C156.088 106.519 154.96 107 153.763 107H45.2228C43.2394 107 42.2477 104.597 43.6498 103.189L65.0911 81.6658Z" fill="url(#paint2_linear)"/>
<path d="M65.0911 1.30446C65.946 0.48059 67.0745 0 68.2372 0H176.777C178.761 0 179.752 2.40295 178.35 3.81039L156.909 25.334C156.088 26.1578 154.96 26.6384 153.763 26.6384H45.2228C43.2394 26.6384 42.2477 24.2355 43.6498 22.828L65.0911 1.30446Z" fill="url(#paint3_linear)"/>
<path d="M156.909 41.2273C156.088 40.4034 154.96 39.9229 153.763 39.9229H45.2228C43.2394 39.9229 42.2477 42.3258 43.6498 43.7332L65.0911 65.2568C65.9118 66.0807 67.0403 66.5613 68.2372 66.5613H176.777C178.761 66.5613 179.752 64.1583 178.35 62.7509L156.909 41.2273Z" fill="url(#paint4_linear)"/>
</g>
<defs>
<filter id="filter0_d" x="7.52588" y="128.37" width="202.74" height="49.63" filterUnits="userSpaceOnUse" color-interpolation-filters="sRGB">
<feFlood flood-opacity="0" result="BackgroundImageFix"/>
<feColorMatrix in="SourceAlpha" type="matrix" values="0 0 0 0 0 0 0 0 0 0 0 0 0 0 0 0 0 0 127 0" result="hardAlpha"/>
<feOffset/>
<feGaussianBlur stdDeviation="7"/>
<feColorMatrix type="matrix" values="0 0 0 0 0.568579 0 0 0 0 0.386314 0 0 0 0 1 0 0 0 0.3 0"/>
<feBlend mode="normal" in2="BackgroundImageFix" result="effect1_dropShadow"/>
<feBlend mode="normal" in="SourceGraphic" in2="effect1_dropShadow" result="shape"/>
</filter>
<filter id="filter1_d" x="24.2222" y="166.68" width="169.535" height="44" filterUnits="userSpaceOnUse" color-interpolation-filters="sRGB">
<feFlood flood-opacity="0" result="BackgroundImageFix"/>
<feColorMatrix in="SourceAlpha" type="matrix" values="0 0 0 0 0 0 0 0 0 0 0 0 0 0 0 0 0 0 127 0" result="hardAlpha"/>
<feOffset/>
<feGaussianBlur stdDeviation="7"/>
<feColorMatrix type="matrix" values="0 0 0 0 0.568579 0 0 0 0 0.386314 0 0 0 0 1 0 0 0 0.3 0"/>
<feBlend mode="normal" in2="BackgroundImageFix" result="effect1_dropShadow"/>
<feBlend mode="normal" in="SourceGraphic" in2="effect1_dropShadow" result="shape"/>
</filter>
<linearGradient id="paint0_linear" x1="171.318" y1="71.8036" x2="104.193" y2="254.082" gradientUnits="userSpaceOnUse">
<stop stop-color="#00FFA3"/>
<stop offset="1" stop-color="#DC1FFF"/>
</linearGradient>
<linearGradient id="paint1_linear" x1="171.318" y1="144.095" x2="150.441" y2="250.394" gradientUnits="userSpaceOnUse">
<stop stop-color="#00FFA3"/>
<stop offset="1" stop-color="#DC1FFF"/>
</linearGradient>
<linearGradient id="paint2_linear" x1="166.409" y1="-12.8579" x2="90.8369" y2="131.339" gradientUnits="userSpaceOnUse">
<stop stop-color="#00FFA3"/>
<stop offset="1" stop-color="#DC1FFF"/>
</linearGradient>
<linearGradient id="paint3_linear" x1="133.563" y1="-30.0717" x2="57.9911" y2="114.125" gradientUnits="userSpaceOnUse">
<stop stop-color="#00FFA3"/>
<stop offset="1" stop-color="#DC1FFF"/>
</linearGradient>
<linearGradient id="paint4_linear" x1="149.881" y1="-21.5199" x2="74.3095" y2="122.677" gradientUnits="userSpaceOnUse">
<stop stop-color="#00FFA3"/>
<stop offset="1" stop-color="#DC1FFF"/>
</linearGradient>
<clipPath id="clip0">
<rect width="136" height="107" fill="white" transform="translate(43)"/>
</clipPath>
</defs>
</svg>
